# xmcd
#
# Track frame offsets:
#	150
#	39560
#	81541
#	95582
#	108325
#	120356
#	133557
#	144207
#	157491
#	169756
#	192072
#	205899
#	222284
#	235485
#	249099
#	264024
#	278615
#
# Disc length: 3946 seconds
#
# Revision: 1
# Processed by: cddbd v1.5.2PL0 Copyright (c) Steve Scherf et al.
# Submitted via: audiograbber 1.83.01
#
DISCID=ea0f6811
DTITLE=Various Artist - Battle of Clarinets CD3
DYEAR=2005
DGENRE=Blues
TTITLE0=Benny Goodman - Sing, Sing, Sing
TTITLE1=Artie Shaw - Concerto for Clarinet
TTITLE2=Woody Herman - The Golden Wedding
TTITLE3=Buster Bailey - Eccentric Rag
TTITLE4=Woody Herman - Yardbird Shuffle
TTITLE5=Sidney Bechet - Blues in Third
TTITLE6=Mezz Mezzrow - That´s a Plenty
TTITLE7=Buster Bailey - Lorna Doone Shortbead
TTITLE8=Edmond Hall - A Shanty In Old Shanty Town
TTITLE9=Peanuts Hucko - China Boy
TTITLE10=Benny Goodman - After you´ve gone
TTITLE11=Edmond Hall - Show Piece
TTITLE12=Artie Shaw - Hop, Skip and Jump
TTITLE13=Mezz Mezzrow - Ole Miss
TTITLE14=Edmond Hall - I Want to be happy
TTITLE15=Barney Bigard - Steps Steps Down
TTITLE16=Benny Goodman - I Gor Rhythm
EXTD=
EXTT0=
EXTT1=
EXTT2=
EXTT3=
EXTT4=
EXTT5=
EXTT6=
EXTT7=
EXTT8=
EXTT9=
EXTT10=
EXTT11=
EXTT12=
EXTT13=
EXTT14=
EXTT15=
EXTT16=
PLAYORDER=
